<svg width="16" height="11" viewBox="0 0 16 11" fill="none" xmlns="http://www.w3.org/2000/svg">
<path d="M8.16838 0.568359C4.71405 0.568359 1.76405 2.71696 0.568848 5.74986C1.76405 8.78275 4.71405 10.9313 8.16838 10.9313C11.6227 10.9313 14.5727 8.78275 15.7679 5.74986C14.5727 2.71696 11.6227 0.568359 8.16838 0.568359ZM8.16838 9.20422C6.26159 9.20422 4.71405 7.65667 4.71405 5.74986C4.71405 3.84306 6.26159 2.29552 8.16838 2.29552C10.0751 2.29552 11.6227 3.84306 11.6227 5.74986C11.6227 7.65667 10.0751 9.20422 8.16838 9.20422ZM8.16838 3.67726C7.02154 3.67726 6.09578 4.60301 6.09578 5.74986C6.09578 6.89671 7.02154 7.82245 8.16838 7.82245C9.31526 7.82245 10.241 6.89671 10.241 5.74986C10.241 4.60301 9.31526 3.67726 8.16838 3.67726Z" fill="black" fill-opacity="0.7"/>
</svg>
